<svg id="visual" viewBox="0 0 900 600" width="900" height="600" xmlns="http://www.w3.org/2000/svg" xmlns:xlink="http://www.w3.org/1999/xlink" version="1.1"><rect width="900" height="600" fill="#0a446d"></rect><g><g transform="translate(666 394)"><path d="M0 -45.8L39.6 -22.9L39.6 22.9L0 45.8L-39.6 22.9L-39.6 -22.9Z" fill="none" stroke="#4f937e" stroke-width="2"></path></g><g transform="translate(199 354)"><path d="M0 -33L28.6 -16.5L28.6 16.5L0 33L-28.6 16.5L-28.6 -16.5Z" fill="none" stroke="#4f937e" stroke-width="2"></path></g><g transform="translate(670 512)"><path d="M0 -39L33.8 -19.5L33.8 19.5L0 39L-33.8 19.5L-33.8 -19.5Z" fill="none" stroke="#4f937e" stroke-width="2"></path></g><g transform="translate(667 176)"><path d="M0 -37L32 -18.5L32 18.5L0 37L-32 18.5L-32 -18.5Z" fill="none" stroke="#4f937e" stroke-width="2"></path></g><g transform="translate(184 465)"><path d="M0 -38L32.9 -19L32.9 19L0 38L-32.9 19L-32.9 -19Z" fill="none" stroke="#4f937e" stroke-width="2"></path></g><g transform="translate(517 63)"><path d="M0 -44L38.1 -22L38.1 22L0 44L-38.1 22L-38.1 -22Z" fill="none" stroke="#4f937e" stroke-width="2"></path></g><g transform="translate(472 340)"><path d="M0 -34L29.4 -17L29.4 17L0 34L-29.4 17L-29.4 -17Z" fill="none" stroke="#4f937e" stroke-width="2"></path></g><g transform="translate(533 529)"><path d="M0 -26L22.5 -13L22.5 13L0 26L-22.5 13L-22.5 -13Z" fill="none" stroke="#4f937e" stroke-width="2"></path></g><g transform="translate(755 48)"><path d="M0 -29L25.1 -14.5L25.1 14.5L0 29L-25.1 14.5L-25.1 -14.5Z" fill="none" stroke="#4f937e" stroke-width="2"></path></g><g transform="translate(265 197)"><path d="M0 -41L35.5 -20.5L35.5 20.5L0 41L-35.5 20.5L-35.5 -20.5Z" fill="none" stroke="#4f937e" stroke-width="2"></path></g><g transform="translate(80 281)"><path d="M0 -30L26 -15L26 15L0 30L-26 15L-26 -15Z" fill="none" stroke="#4f937e" stroke-width="2"></path></g><g transform="translate(745 307)"><path d="M0 -38L32.9 -19L32.9 19L0 38L-32.9 19L-32.9 -19Z" fill="none" stroke="#4f937e" stroke-width="2"></path></g><g transform="translate(805 165)"><path d="M0 -25L21.7 -12.5L21.7 12.5L0 25L-21.7 12.5L-21.7 -12.5Z" fill="none" stroke="#4f937e" stroke-width="2"></path></g><g transform="translate(162 67)"><path d="M0 -32L27.7 -16L27.7 16L0 32L-27.7 16L-27.7 -16Z" fill="none" stroke="#4f937e" stroke-width="2"></path></g><g transform="translate(357 370)"><path d="M0 -31L26.8 -15.5L26.8 15.5L0 31L-26.8 15.5L-26.8 -15.5Z" fill="none" stroke="#4f937e" stroke-width="2"></path></g></g></svg>